<svg xmlns="http://www.w3.org/2000/svg" width="720" height="626" viewBox="0 0 720 626">
  <rect width="720" height="626" fill="#ffffff"/>

  <g transform="translate(52 40)">
    <rect x="0" y="0" width="84" height="84" rx="18" fill="#d71920"/>
    <path d="M18 54 C27 44, 37 32, 47 25 C57 18, 61 28, 60 45 C59 61, 66 48, 75 40" fill="none" stroke="#ffffff" stroke-width="7" stroke-linecap="round" stroke-linejoin="round"/>
    <rect x="0" y="66" width="84" height="18" rx="0" fill="#f4a000"/>
    <text x="42" y="79" text-anchor="middle" font-family="Arial, 'Noto Sans JP', sans-serif" font-size="11" font-weight="700" fill="#111111">ClassRoom 3</text>
  </g>

  <text x="156" y="100" font-family="Arial, 'Noto Sans JP', sans-serif" font-size="58" font-weight="700" fill="#242424">MetaMoJi ClassRoom 3</text>

  <rect x="78" y="150" width="564" height="410" rx="18" fill="#ffffff" stroke="#dddddd" stroke-width="2"/>

  <g font-family="Arial, 'Noto Sans JP', sans-serif" font-size="30" font-weight="600" fill="#111111">
    <rect x="110" y="188" width="500" height="76" rx="38" fill="#ffffff" stroke="#777777" stroke-width="2"/>
    <g transform="translate(146 208)" stroke="#222222" stroke-width="3" fill="none">
      <rect x="0" y="0" width="14" height="14"/>
      <rect x="22" y="0" width="14" height="14"/>
      <rect x="0" y="22" width="14" height="14"/>
      <rect x="22" y="22" width="14" height="14"/>
      <rect x="6" y="6" width="2" height="2" fill="#222222" stroke="none"/>
      <rect x="28" y="6" width="2" height="2" fill="#222222" stroke="none"/>
      <rect x="6" y="28" width="2" height="2" fill="#222222" stroke="none"/>
      <rect x="28" y="28" width="2" height="2" fill="#222222" stroke="none"/>
      <rect x="17" y="17" width="4" height="4" fill="#222222" stroke="none"/>
    </g>
    <text x="218" y="237">QRコードでログイン</text>

    <rect x="110" y="282" width="500" height="76" rx="38" fill="#ffffff" stroke="#777777" stroke-width="2"/>
    <g transform="translate(146 298)">
      <rect x="0" y="0" width="44" height="44" rx="10" fill="#d71920"/>
      <path d="M8 30 C14 22, 20 15, 26 11 C32 7, 34 13, 33 22 C32 31, 36 24, 41 20" fill="none" stroke="#ffffff" stroke-width="4" stroke-linecap="round" stroke-linejoin="round"/>
      <rect x="0" y="34" width="44" height="10" fill="#f4a000"/>
    </g>
    <text x="218" y="331">MetaMoJiでログイン</text>

    <rect x="110" y="376" width="500" height="76" rx="38" fill="#ffffff" stroke="#777777" stroke-width="2"/>
    <text x="146" y="427" font-size="46" font-weight="700" fill="#4285F4">G</text>
    <text x="218" y="425" fill="#111111">Googleでログイン</text>

    <rect x="110" y="470" width="500" height="76" rx="38" fill="#ffffff" stroke="#777777" stroke-width="2"/>
    <g transform="translate(146 488)">
      <rect x="0" y="0" width="18" height="18" fill="#f35325"/>
      <rect x="21" y="0" width="18" height="18" fill="#81bc06"/>
      <rect x="0" y="21" width="18" height="18" fill="#05a6f0"/>
      <rect x="21" y="21" width="18" height="18" fill="#ffba08"/>
    </g>
    <text x="218" y="519">Microsoftでログイン</text>
  </g>
</svg>
