<svg xmlns="http://www.w3.org/2000/svg" width="465" height="395" viewBox="0 0 465 395">
  <rect width="465" height="395" fill="#f7f7f7"/>
  <g transform="translate(14 16)">
    <rect x="0" y="0" width="44" height="44" rx="9" fill="#d71920"/>
    <path d="M8 31 C14 23,20 15,26 11 C32 7,34 13,33 22 C32 31,36 24,41 20" fill="none" stroke="#fff" stroke-width="4" stroke-linecap="round" stroke-linejoin="round"/>
    <rect x="0" y="34" width="44" height="10" fill="#f4a000"/>
  </g>
  <text x="68" y="49" font-family="Arial, 'Noto Sans JP', sans-serif" font-size="34" font-weight="700" fill="#333">MetaMoJi ClassRoom 3</text>
  <rect x="44" y="90" width="380" height="298" rx="12" fill="#fff" stroke="#ddd"/>
  <g font-family="Arial, 'Noto Sans JP', sans-serif" font-size="16" fill="#aaa">
    <rect x="65" y="120" width="337" height="49" rx="3" fill="#fff" stroke="#bbb" stroke-width="2"/>
    <text x="76" y="151">団体ID</text>
    <rect x="65" y="181" width="337" height="49" rx="3" fill="#fff" stroke="#bbb" stroke-width="2"/>
    <text x="76" y="212">ユーザーID</text>
    <rect x="65" y="243" width="337" height="49" rx="3" fill="#fff" stroke="#bbb" stroke-width="2"/>
    <text x="76" y="274">パスワード</text>
  </g>
  <g transform="translate(369 259)" stroke="#555" stroke-width="1.6" fill="none">
    <path d="M0 10 C5 3,13 3,18 10 C13 17,5 17,0 10 Z"/>
    <circle cx="9" cy="10" r="3"/>
  </g>
  <rect x="158" y="307" width="151" height="50" rx="25" fill="#3478f6"/>
  <text x="234" y="339" text-anchor="middle" font-family="Arial, 'Noto Sans JP', sans-serif" font-size="20" font-weight="700" fill="#fff">ログイン</text>
</svg>
